<?xml version="1.0" ?><svg viewBox="0 0 60 60" xmlns="http://www.w3.org/2000/svg"><title/><g id="text"><text font-family="MyriadPro-Regular, Myriad Pro" font-size="9" transform="translate(7.62109 67.39014)"><tspan letter-spacing="0.00602em"/><tspan x="4.49121" y="0"/><tspan letter-spacing="0.02398em" x="9.43213" y="0"/><tspan x="12.59082" y="0"/><tspan letter-spacing="-0.00401em" x="35.47754" y="0"/><tspan x="39.7793" y="0"/></text></g><g data-name="Layer 1" id="Layer_1"><path d="M59.38477,58.07715l-11.748-4.89551-2.55078-3.40088.87891-3.51562a1.01,1.01,0,0,0,.02734-.39307l-.001-.00342v-.00146l-.001-.00342v-.00586l-.001-.00293v-.00293l-.001-.00342a.99367.99367,0,0,0-.38379-.645v-.00049c-.01074-.00244-.00293-.002-.00293-.002l-.002-.001-2.55994-1.91992L45.7998,39.6001a1.00122,1.00122,0,0,0,.13672-.95117l-2.82141-7.5238.43958-.29309a.9993.9993,0,0,0,.27734-1.38672L42.20215,27,43.832,24.55469a1.00108,1.00108,0,0,0-.05078-1.1792l-3.22754-4.03418,2.89355-1.44678A.99985.99985,0,0,0,44,17V14.96912l9.70605,2.98645a.99947.99947,0,0,0,1.1416-1.48535l-5-8A.99932.99932,0,0,0,49,8H43.30273L41,6.46484V4a1.00015,1.00015,0,0,0-1.31641-.94873l-6,2a.9996.9996,0,0,0-.59375.53516L28.35645,16H26a1.00176,1.00176,0,0,0-.86426.49609l-7,12A1.00046,1.00046,0,0,0,18.293,29.707l1.46,1.46-3.62109,6.33691a.99994.99994,0,0,0-.02637.94336l1.63867,3.27686L13.375,45.21924a.99977.99977,0,0,0-.26953,1.228l1.72363,3.44727-2.46582,3.28711L.61523,58.07715A.99993.99993,0,0,0,1,60H59a.99993.99993,0,0,0,.38477-1.92285ZM16.49988,51H43.50012l1.5,2H14.99988Zm25.685-16.65845L40.127,35.71338,38.5694,34.15552,41.406,32.26447ZM30.59961,33.2002l-3.78613-2.83984-1.90991-4.45679,4.52515,1.9397,5.80847,5.808-5.95593,2.48151L30.707,34.707a1.00008,1.00008,0,0,0-.10742-1.50684ZM26.57422,18H29a.99856.99856,0,0,0,.91016-.58643l4.81934-10.603L39,5.38721V7a.99963.99963,0,0,0,.44531.832l3,2A1.001,1.001,0,0,0,43,10h5.44531l3.28516,5.25537L41.29395,12.04443a.99976.99976,0,1,0-.58789,1.91113L42,14.3537v2.02814l-3.44727,1.72363a1.00072,1.00072,0,0,0-.334,1.519l3.54395,4.4292L40.168,26.44531a1.00107,1.00107,0,0,0,0,1.10938l1.44531,2.168-4.486,2.9906L30.707,26.293a.99343.99343,0,0,0-.31348-.21191l-6.82666-2.92572ZM19.625,42.78076a.99977.99977,0,0,0,.26953-1.228l-1.76074-3.52148,3.73438-6.53516A.99928.99928,0,0,0,21.707,30.293L20.252,28.83789l2.15234-3.68964L25.08105,31.394a.99144.99144,0,0,0,.31934.40576l3.07715,2.30859L24.293,38.293a.99979.99979,0,0,0,1.0918,1.62988l11.38165-4.74237L39.293,37.707a.99973.99973,0,0,0,1.26172.125l2.35126-1.5675.96515,2.57385-2.43127,3.242L37.59961,39.2002A.99718.99718,0,0,0,37,39H34a1.00239,1.00239,0,0,0-.38477.07715l-12,5a.99989.99989,0,0,0,.46191,1.91992l12.8623-.98926,8.83594,1.76709L43.21948,49H16.6181l-1.36224-2.72412Zm21.248,1.374-5.67676-1.13525A.98392.98392,0,0,0,35,43c-.02539,0-.05078.001-.07715.00293l-6.78223.522L34.2002,41H36.667ZM6,58l7.19965-3H46.80035L54,58Z"/></g></svg>